<svg xmlns="http://www.w3.org/2000/svg" viewBox="0 0 400 400">
  <defs>
    <linearGradient id="bg" x1="0%" y1="0%" x2="100%" y2="100%">
      <stop offset="0%" style="stop-color:#1a5632;stop-opacity:1"/>
      <stop offset="100%" style="stop-color:#41B95C;stop-opacity:1"/>
    </linearGradient>
  </defs>
  <rect width="400" height="400" rx="60" fill="url(#bg)"/>
  <!-- Globe lines -->
  <ellipse cx="200" cy="200" rx="120" ry="120" fill="none" stroke="white" stroke-width="4" opacity="0.3"/>
  <ellipse cx="200" cy="200" rx="120" ry="60" fill="none" stroke="white" stroke-width="3" opacity="0.3"/>
  <ellipse cx="200" cy="200" rx="60" ry="120" fill="none" stroke="white" stroke-width="3" opacity="0.3"/>
  <line x1="80" y1="200" x2="320" y2="200" stroke="white" stroke-width="2" opacity="0.2"/>
  <line x1="200" y1="80" x2="200" y2="320" stroke="white" stroke-width="2" opacity="0.2"/>
  <!-- Map pin -->
  <path d="M200 140 C170 140 155 170 155 190 C155 225 200 270 200 270 C200 270 245 225 245 190 C245 170 230 140 200 140Z" fill="white" opacity="0.9"/>
  <circle cx="200" cy="190" r="15" fill="#1a5632"/>
  <!-- Satellite dish -->
  <path d="M310 130 C310 130 290 160 290 180 C290 200 310 220 310 220" fill="none" stroke="white" stroke-width="5" opacity="0.8"/>
  <circle cx="310" cy="175" r="8" fill="white" opacity="0.9"/>
  <!-- Waves -->
  <path d="M100 290 Q130 270 160 290 Q190 310 220 290 Q250 270 280 290 Q310 310 320 290" fill="none" stroke="white" stroke-width="3" opacity="0.5"/>
  <!-- Text -->
  <text x="200" y="350" font-family="Arial" font-size="28" fill="white" text-anchor="middle" font-weight="bold">GEO AI</text>
  <text x="200" y="375" font-family="Arial" font-size="16" fill="#a0d9b0" text-anchor="middle">STUDIO</text>
</svg>
